<svg width="104" height="104" viewBox="0 0 104 104" fill="none" xmlns="http://www.w3.org/2000/svg">
<g id="logos" clip-path="url(#clip0_1383_413)">
<g id="Group">
<path id="Vector" d="M12.0141 18.5495C11.9437 18.4834 11.932 18.3668 11.9985 18.2948L13.6299 16.5643C14.9209 15.1955 17.098 15.1177 18.4672 16.3932C19.8521 17.6823 19.9166 19.8465 18.6256 21.2153L16.9943 22.9458C16.9278 23.0178 16.8104 23.0139 16.738 22.9458L12.0141 18.5457V18.5495ZM17.5029 20.3053C18.2579 19.5042 18.1718 18.3298 17.3581 17.5735C16.5522 16.8229 15.3688 16.8132 14.6118 17.6143L13.9702 18.2948L16.8613 20.9859L17.5029 20.3053Z" fill="white"/>
<path id="Vector_2" d="M25.6537 6.89286C27.3457 5.91677 29.4896 6.48842 30.4715 8.16838C31.4535 9.84834 30.8823 11.9677 29.1922 12.9458C27.5003 13.9238 25.374 13.3638 24.3921 11.6819C23.4101 10 23.9617 7.87089 25.6537 6.89286ZM28.4059 11.6002C29.337 11.0636 29.6558 9.86584 29.1199 8.95003C28.58 8.0245 27.3712 7.69978 26.4401 8.23644C25.5188 8.7692 25.2038 9.97278 25.7457 10.8983C26.2816 11.8141 27.4846 12.1311 28.4059 11.5983V11.6002Z" fill="white"/>
<path id="Vector_3" d="M37.9633 1.82577C37.9535 1.73827 38.0259 1.65272 38.1021 1.63716L38.2547 1.60411C38.3017 1.59438 38.3975 1.61188 38.4386 1.66244L41.5663 5.27707L41.5859 5.27318L42.8906 0.68635C42.9062 0.622184 42.9845 0.565797 43.0314 0.556075L43.184 0.52302C43.2603 0.505521 43.362 0.55413 43.3894 0.63774L45.8853 6.78009C45.9323 6.8987 45.8658 7.0037 45.7504 7.02898L44.6237 7.27591C44.5376 7.29536 44.4359 7.23703 44.4085 7.16314L43.3268 4.32432L43.3072 4.32821L42.3859 7.75618C42.3703 7.82035 42.294 7.88646 42.247 7.89618L42.0749 7.93312C42.0182 7.94479 41.9302 7.91562 41.8891 7.86507L39.5907 5.14291L39.5711 5.1468L39.802 8.17228C39.8098 8.25006 39.7491 8.34339 39.6553 8.36478L38.5286 8.61172C38.4132 8.63699 38.3095 8.57088 38.2997 8.44255L37.9613 1.82577H37.9633Z" fill="white"/>
<path id="Vector_4" d="M52.221 6.38928L55.7693 0.0952677C55.8026 0.0388802 55.8749 -0.00389658 55.9434 0.00193661L56.0412 0.0097142C56.1097 0.0155474 56.1742 0.0680461 56.1996 0.128322L58.7562 6.88121C58.8051 7.01149 58.7171 7.13204 58.5704 7.12038L57.4887 7.03871C57.3126 7.0251 57.2403 6.96094 57.1659 6.77038L56.8725 5.97901L54.2201 5.78069L53.8093 6.52928C53.7526 6.64205 53.6352 6.75094 53.4396 6.73538L52.3677 6.65566C52.221 6.644 52.1525 6.51372 52.221 6.39123V6.38928ZM56.3874 4.61599L55.7674 2.96131H55.7576L54.9047 4.50516L56.3874 4.61599Z" fill="white"/>
<path id="Vector_5" d="M67.3767 2.41884C67.406 2.32551 67.5175 2.26912 67.6114 2.30023L68.7283 2.65994C68.8222 2.68911 68.8789 2.79994 68.8476 2.89327L66.8505 9.01618C66.8211 9.10951 66.7096 9.16395 66.6157 9.13479L65.4988 8.77508C65.4049 8.74591 65.3482 8.63508 65.3795 8.54175L67.3767 2.41884Z" fill="white"/>
<path id="Vector_6" d="M77.4191 6.47481C77.4719 6.39314 77.5873 6.3737 77.6694 6.4262L77.8768 6.55647L79.1697 11.785L79.1776 11.7908L81.0319 8.87225C81.0847 8.79058 81.1982 8.75753 81.2882 8.81392L82.2799 9.43807C82.362 9.49057 82.3894 9.61112 82.3386 9.69278L78.8235 15.2246C78.7707 15.3063 78.6553 15.3257 78.5731 15.2732L78.4401 15.1896C78.4147 15.174 78.3658 15.1079 78.358 15.0807L77.1667 9.76667L77.1589 9.76084L75.2107 12.8272C75.1578 12.9088 75.0444 12.9419 74.9544 12.8835L73.9705 12.2652C73.8884 12.2127 73.861 12.0922 73.9138 12.0105L77.421 6.47286L77.4191 6.47481Z" fill="white"/>
<path id="Vector_7" d="M89.4527 15.8215C89.5251 15.7574 89.6425 15.7554 89.7149 15.8351L92.424 18.8256C92.4964 18.9053 92.4827 19.022 92.4103 19.0862L91.6181 19.7959C91.5457 19.86 91.4284 19.862 91.356 19.7823L89.5427 17.7815L88.641 18.5884L90.1335 20.2353C90.198 20.3073 90.1921 20.4317 90.1198 20.4959L89.3276 21.2056C89.2474 21.2775 89.13 21.2639 89.0654 21.192L87.573 19.5451L86.591 20.4239L88.4043 22.4247C88.4767 22.5044 88.463 22.6211 88.3906 22.6853L87.5984 23.395C87.526 23.4591 87.4087 23.4611 87.3363 23.3814L84.6271 20.3909C84.5548 20.3111 84.5685 20.1945 84.6408 20.1303L89.4508 15.8235L89.4527 15.8215Z" fill="white"/>
</g>
<g id="Group_2">
<path id="Vector_8" d="M16.5973 80.605C16.6696 80.5409 16.787 80.5409 16.8594 80.6206L18.3773 82.3103C19.146 83.1658 19.1871 84.3927 18.4203 85.0732C17.8589 85.571 17.0002 85.4349 16.5131 85.256C16.697 85.783 16.8691 86.6871 16.1963 87.284C15.3786 88.0093 14.1443 87.8168 13.3678 86.9535L11.7521 85.1549C11.6797 85.0752 11.6934 84.9585 11.7677 84.8944L16.5973 80.607V80.605ZM14.2813 85.8802C14.5356 86.1621 14.9835 86.1952 15.2828 85.9288C15.5742 85.6702 15.5136 85.1646 15.2593 84.8808L14.7312 84.2935L13.6886 85.2191L14.2813 85.8782V85.8802ZM16.1884 84.0174C16.4369 84.2935 16.877 84.3169 17.1704 84.0583C17.4638 83.7997 17.4579 83.3855 17.2115 83.1094L16.7029 82.5436L15.6818 83.4497L16.1904 84.0155L16.1884 84.0174Z" fill="white"/>
<path id="Vector_9" d="M25.1394 88.6334C25.1961 88.5537 25.3194 88.5343 25.3996 88.5906L26.3561 89.2654C26.4363 89.3217 26.4558 89.4442 26.3991 89.524L22.6513 94.7738C22.5946 94.8536 22.4713 94.873 22.3931 94.8166L21.4366 94.1419C21.3564 94.0855 21.3368 93.963 21.3916 93.8852L25.1394 88.6354V88.6334Z" fill="white"/>
<path id="Vector_10" d="M32.8971 93.2358C32.9363 93.1464 33.0419 93.0958 33.1416 93.1386L34.2136 93.5897C34.3035 93.6286 34.3505 93.7433 34.3114 93.8328L32.2732 98.614L34.417 99.5182C34.5168 99.559 34.5539 99.6718 34.5148 99.7612L34.0982 100.737C34.059 100.827 33.9534 100.877 33.8537 100.835L30.4677 99.4073C30.3679 99.3665 30.3308 99.2537 30.3699 99.1643L32.8971 93.2378V93.2358Z" fill="white"/>
<path id="Vector_11" d="M41.7875 102.157L42.3723 101.433C42.4701 101.321 42.6501 101.369 42.7107 101.43C42.7459 101.455 43.3582 102.075 43.9959 102.178C44.3812 102.24 44.702 102.046 44.7568 101.71C44.8233 101.307 44.5357 100.945 43.9215 100.58C43.145 100.119 42.208 99.3082 42.3958 98.1571C42.5503 97.2063 43.4521 96.3683 44.9387 96.6074C45.9421 96.7688 46.6326 97.4027 46.8869 97.6613C46.9926 97.7468 46.9437 97.916 46.8948 97.9782L46.2825 98.6374C46.1984 98.7326 46.0106 98.791 45.9343 98.7093C45.8561 98.6471 45.236 98.0054 44.6472 97.9102C44.2991 97.8538 44.0017 98.0424 43.9587 98.301C43.9 98.6568 44.1465 98.9718 44.8585 99.4015C45.5627 99.8215 46.6639 100.599 46.4507 101.904C46.2884 102.892 45.2673 103.751 43.8472 103.522C42.5914 103.319 41.9811 102.688 41.7953 102.431C41.7151 102.32 41.6916 102.277 41.7914 102.155L41.7875 102.157Z" fill="white"/>
<path id="Vector_12" d="M55.1376 98.6509L53.7429 98.754C53.6354 98.7618 53.5512 98.6801 53.5434 98.5829L53.4632 97.5271C53.4554 97.4299 53.5278 97.3365 53.6354 97.3288L57.9661 97.0079C58.0737 97.0002 58.1578 97.0818 58.1656 97.179L58.2458 98.2348C58.2536 98.3321 58.1813 98.4254 58.0737 98.4332L56.679 98.5362L57.0682 103.714C57.0761 103.811 56.9939 103.905 56.8961 103.912L55.7264 104C55.6286 104.008 55.5347 103.926 55.5269 103.829L55.1376 98.6509Z" fill="white"/>
<path id="Vector_13" d="M65.5908 102.277L66.4476 95.1121C66.4574 95.048 66.5063 94.9799 66.5728 94.9585L66.6667 94.9274C66.7312 94.906 66.8114 94.9313 66.8583 94.978L71.8189 100.245C71.9148 100.346 71.8796 100.492 71.7407 100.537L70.7098 100.873C70.5416 100.928 70.4497 100.897 70.3088 100.749L69.7338 100.129L67.2065 100.953L67.1165 101.801C67.1068 101.927 67.0403 102.071 66.8544 102.131L65.8334 102.464C65.6945 102.509 65.581 102.413 65.5967 102.275L65.5908 102.277ZM68.7577 99.0554L67.5488 97.7624L67.5391 97.7662L67.3454 99.5182L68.7577 99.0573V99.0554Z" fill="white"/>
<path id="Vector_14" d="M75.6743 91.1864C75.6235 91.1028 75.6528 90.9842 75.7349 90.9317L76.7365 90.3231C76.8206 90.2726 76.9399 90.3017 76.9927 90.3834L80.3728 95.8724C80.4236 95.956 80.3943 96.0766 80.3121 96.1271L79.3106 96.7357C79.2265 96.7863 79.1052 96.7571 79.0544 96.6755L75.6743 91.1864Z" fill="white"/>
<path id="Vector_15" d="M82.898 85.9249C82.8276 85.8568 82.8354 85.7402 82.9039 85.6702L83.076 85.4971L88.4904 85.3649L88.4982 85.3571L86.0297 82.9305C85.9593 82.8625 85.9534 82.7458 86.0297 82.67L86.8551 81.8397C86.9236 81.7697 87.0488 81.7697 87.1173 81.8397L91.7962 86.4421C91.8666 86.5101 91.8588 86.6268 91.7903 86.6968L91.6808 86.8076C91.6592 86.829 91.5849 86.864 91.5575 86.864L86.0805 86.8796L86.0727 86.8874L88.6665 89.4384C88.7369 89.5065 88.7428 89.6231 88.6665 89.699L87.8488 90.5214C87.7804 90.5914 87.6552 90.5914 87.5867 90.5214L82.9 85.9268L82.898 85.9249Z" fill="white"/>
</g>
<g id="Group_3">
<path id="Vector_16" d="M94.3918 49.1952C94.249 49.1952 94.1043 49.1466 93.985 49.0474C93.717 48.8238 93.6818 48.4272 93.9067 48.1608L98.3939 42.8429C98.6189 42.5765 99.0179 42.5415 99.2859 42.7651C99.5539 42.9887 99.5891 43.3853 99.3641 43.6517L94.8769 48.9697C94.7517 49.1174 94.5718 49.1952 94.3918 49.1952Z" fill="white"/>
<path id="Vector_17" d="M103.366 49.1952C103.186 49.1952 103.006 49.1194 102.881 48.9697L98.3939 43.6517C98.1689 43.3853 98.2042 42.9887 98.4721 42.7651C98.7401 42.5415 99.1392 42.5765 99.3641 42.8429L103.851 48.1608C104.076 48.4272 104.041 48.8238 103.773 49.0474C103.654 49.1466 103.511 49.1952 103.366 49.1952Z" fill="white"/>
<path id="Vector_18" d="M98.4389 61.303C98.3001 61.1882 98.212 61.0133 98.212 60.8208V56.8114C98.212 56.4634 98.4957 56.1814 98.8458 56.1814C99.1959 56.1814 99.4796 56.4634 99.4796 56.8114V60.8208C99.4796 61.1688 99.1959 61.4507 98.8458 61.4507C98.6913 61.4507 98.5485 61.3963 98.4389 61.303Z" fill="white"/>
<path id="Vector_19" d="M94.3918 53.7023C94.249 53.7023 94.1043 53.6537 93.985 53.5545C93.717 53.3309 93.6818 52.9343 93.9067 52.6679L98.3939 47.35C98.6189 47.0836 99.0179 47.0486 99.2859 47.2722C99.5539 47.4958 99.5891 47.8925 99.3641 48.1588L94.8769 53.4768C94.7517 53.6245 94.5718 53.7023 94.3918 53.7023Z" fill="white"/>
<path id="Vector_20" d="M103.366 53.7023C103.186 53.7023 103.006 53.6265 102.881 53.4768L98.3939 48.1588C98.1689 47.8925 98.2042 47.4958 98.4721 47.2722C98.7401 47.0486 99.1392 47.0836 99.3641 47.35L103.851 52.6679C104.076 52.9343 104.041 53.3309 103.773 53.5545C103.654 53.6537 103.511 53.7023 103.366 53.7023Z" fill="white"/>
<path id="Vector_21" d="M94.3918 58.2094C94.249 58.2094 94.1043 58.1608 93.985 58.0617C93.717 57.838 93.6818 57.4414 93.9067 57.175L98.3939 51.8571C98.6189 51.5907 99.0179 51.5557 99.2859 51.7793C99.5539 52.0029 99.5891 52.3996 99.3641 52.6659L94.8769 57.9839C94.7517 58.1317 94.5718 58.2094 94.3918 58.2094Z" fill="white"/>
<path id="Vector_22" d="M103.366 58.2094C103.186 58.2094 103.006 58.1336 102.881 57.9839L98.3939 52.6659C98.1689 52.3996 98.2042 52.0029 98.4721 51.7793C98.7401 51.5557 99.1392 51.5907 99.3641 51.8571L103.851 57.175C104.076 57.4414 104.041 57.838 103.773 58.0617C103.654 58.1608 103.511 58.2094 103.366 58.2094Z" fill="white"/>
</g>
<g id="Group_4">
<path id="Vector_23" d="M0.633762 49.1952C0.490969 49.1952 0.34622 49.1466 0.2269 49.0474C-0.0410804 48.8238 -0.0762895 48.4272 0.148658 48.1608L4.63587 42.8429C4.86082 42.5765 5.25985 42.5415 5.52783 42.7651C5.79581 42.9887 5.83102 43.3853 5.60608 43.6517L1.11887 48.9697C0.993677 49.1174 0.813719 49.1952 0.633762 49.1952Z" fill="white"/>
<path id="Vector_24" d="M9.6062 49.1952C9.42624 49.1952 9.24629 49.1194 9.1211 48.9697L4.63389 43.6517C4.40894 43.3853 4.44415 42.9887 4.71213 42.7651C4.98011 42.5415 5.37915 42.5765 5.60409 42.8429L10.0913 48.1608C10.3163 48.4272 10.281 48.8238 10.0131 49.0474C9.89374 49.1466 9.75095 49.1952 9.6062 49.1952Z" fill="white"/>
<path id="Vector_25" d="M4.67893 61.303C4.54005 61.1882 4.45203 61.0133 4.45203 60.8208V56.8114C4.45203 56.4634 4.73566 56.1814 5.08579 56.1814C5.43593 56.1814 5.71956 56.4634 5.71956 56.8114V60.8208C5.71956 61.1688 5.43593 61.4507 5.08579 61.4507C4.93126 61.4507 4.78847 61.3963 4.67893 61.303Z" fill="white"/>
<path id="Vector_26" d="M0.633762 53.7023C0.490969 53.7023 0.34622 53.6537 0.2269 53.5545C-0.0410804 53.3309 -0.0762895 52.9343 0.148658 52.6679L4.63587 47.35C4.86082 47.0836 5.25985 47.0486 5.52783 47.2722C5.79581 47.4958 5.83102 47.8925 5.60608 48.1588L1.11887 53.4768C0.993677 53.6245 0.813719 53.7023 0.633762 53.7023Z" fill="white"/>
<path id="Vector_27" d="M9.6062 53.7023C9.42624 53.7023 9.24629 53.6265 9.1211 53.4768L4.63389 48.1588C4.40894 47.8925 4.44415 47.4958 4.71213 47.2722C4.98011 47.0486 5.37915 47.0836 5.60409 47.35L10.0913 52.6679C10.3163 52.9343 10.281 53.3309 10.0131 53.5545C9.89374 53.6537 9.75095 53.7023 9.6062 53.7023Z" fill="white"/>
<path id="Vector_28" d="M0.633762 58.2094C0.490969 58.2094 0.34622 58.1608 0.2269 58.0617C-0.0410804 57.838 -0.0762895 57.4414 0.148658 57.175L4.63587 51.8571C4.86082 51.5907 5.25985 51.5557 5.52783 51.7793C5.79581 52.0029 5.83102 52.3996 5.60608 52.6659L1.11887 57.9839C0.993677 58.1317 0.813719 58.2094 0.633762 58.2094Z" fill="white"/>
<path id="Vector_29" d="M9.6062 58.2094C9.42624 58.2094 9.24629 58.1336 9.1211 57.9839L4.63389 52.6659C4.40894 52.3996 4.44415 52.0029 4.71213 51.7793C4.98011 51.5557 5.37915 51.5907 5.60409 51.8571L10.0913 57.175C10.3163 57.4414 10.281 57.838 10.0131 58.0617C9.89374 58.1608 9.75095 58.2094 9.6062 58.2094Z" fill="white"/>
</g>
<path id="Vector_30" d="M38.5344 25.2811V34.3867H45.099V33.467C45.099 32.5512 45.8462 31.8084 46.7675 31.8084H59.969C64.6811 31.8084 68.5013 35.6058 68.5013 40.2899C68.5013 44.9739 64.6811 48.7713 59.969 48.7713H45.099V42.2887H38.5344V61.7813H45.099V55.2987H59.969C64.6811 55.2987 68.5013 59.0961 68.5013 63.7801C68.5013 68.4642 64.6811 72.2616 59.969 72.2616H46.7675C45.8462 72.2616 45.099 71.5188 45.099 70.603V69.6833H38.5344V78.789H59.9709C68.3096 78.789 75.0678 72.0691 75.0678 63.7821C75.0678 59.0241 72.8379 54.7873 69.3639 52.0379C72.8379 49.2885 75.0678 45.0517 75.0678 40.2938C75.0678 32.0048 68.3077 25.2869 59.9709 25.2869" fill="white"/>
<path id="Vector_31" d="M49.7583 69.6814C56.853 69.6814 62.7642 64.6493 64.0806 57.9781C62.8816 57.1342 61.4595 56.6714 59.971 56.6714H57.5591C56.6809 60.3852 53.334 63.1541 49.33 63.1541H37.1652C36.2439 63.1541 35.4967 62.4113 35.4967 61.4955V42.5687C35.4967 41.6529 36.2439 40.9102 37.1652 40.9102H49.33C53.334 40.9102 56.6809 43.679 57.5591 47.3928H59.971C61.4595 47.3928 62.8835 46.93 64.0826 46.0861C62.7662 39.4169 56.8549 34.3828 49.7603 34.3828H28.9321V69.6775" fill="white"/>
</g>
<defs>
<clipPath id="clip0_1383_413">
<rect width="104" height="104" fill="white"/>
</clipPath>
</defs>
</svg>
